<svg xmlns="http://www.w3.org/2000/svg" viewBox="0 0 170.9 182.46"><title>Asset 2</title><g id="Layer_2" data-name="Layer 2"><g id="Layer_1-2" data-name="Layer 1"><path d="M91.2,55.14,56.62,69.39a5,5,0,0,0-3,4l-3.83,35.45a5,5,0,0,0,3.79,5.34l45.08,10.57a4.93,4.93,0,0,0,5.5-2.5l16-30.31a5,5,0,0,0-.43-5.29L97,56.72A4.93,4.93,0,0,0,91.2,55.14Z" style="fill:#bc262c"/><path d="M102.41,125.65h0Z" style="fill:#bc262c"/><path d="M95.17,135.39c-9.92-2.25-44.54-10.29-52.58-12.16a4.87,4.87,0,0,0-3.23.34l-10.6,5a4.94,4.94,0,0,0-2.36,6.57l.18.35,18.76,32.77a4.92,4.92,0,0,0,2.83,2.27c6.56,2,28.68,8.89,36.19,11.64a5,5,0,0,0,4.86-.85c5.87-4.89,11.21-10.35,16.83-15.59a4.91,4.91,0,0,0,1.3-5.3c-2.74-7.56-5.79-14.83-8.69-22.08A4.9,4.9,0,0,0,95.17,135.39Z" style="fill:#e99d23"/><path d="M145.7,16.58l-30.3,2.83a5,5,0,0,0-4.05,2.89l-9,20a5,5,0,0,0,.61,5.08l24.69,31.55a5,5,0,0,0,4.66,1.84l25.49-4a4.92,4.92,0,0,0,3.84-3.1l8.92-23.07a4.9,4.9,0,0,0-.61-4.68L150.16,18.59A4.9,4.9,0,0,0,145.7,16.58Z" style="fill:#293b90"/><path d="M82.84.35,42.93,16.13a4.93,4.93,0,0,0-2.72,2.64L29.67,43.22a5,5,0,0,0,2.26,6.34l16.68,8.67a4.93,4.93,0,0,0,4.13.2L88.19,44.08a5,5,0,0,0,2.66-2.58l9.93-22.35a4.94,4.94,0,0,0-.94-5.41L88.24,1.54A4.93,4.93,0,0,0,82.84.35Z" style="fill:#009448"/><path d="M19,58.07,3,71.15a4.91,4.91,0,0,0-1.8,3.63L0,104.09a5,5,0,0,0,2.05,4.21l15.16,10.94a5,5,0,0,0,5,.47l14.66-6.91a4.94,4.94,0,0,0,2.81-4l3.4-36.48a4.92,4.92,0,0,0-2.31-4.65l-16-10A5,5,0,0,0,19,58.07Z" style="fill:#1085a5"/></g></g></svg>